<?xml version="1.0" encoding="utf-8"?>
<!-- Generator: Adobe Illustrator 26.0.3, SVG Export Plug-In . SVG Version: 6.00 Build 0)  -->
<svg version="1.1" id="Слой_1" xmlns="http://www.w3.org/2000/svg" xmlns:xlink="http://www.w3.org/1999/xlink" x="0px" y="0px"
	 viewBox="0 0 237.7 67.6" style="enable-background:new 0 0 237.7 67.6;" xml:space="preserve">
<style type="text/css">
	.st0{fill:#FFFFFF;}
</style>
<g>
	<path class="st0" d="M0,6.7c0.3,0,0.6,0,0.8,0c15.6,0,31.4,0,47,0c0.3,0,0.6,0,1,0c-1.6,18.7-3.2,37.4-4.8,56.1c-0.3,0-0.6,0-0.9,0
		c-14.1,0-28.2,0-42.2,0c-0.3,0-0.6,0-0.8-0.1C0,44.1,0,25.5,0,6.7z"/>
	<path class="st0" d="M88.3,62.8c-4.5,0-8.8,0-13.3,0c0-18.7,0-37.4,0-56.1c4.5,0,8.8,0,13.3,0C88.3,25.5,88.3,44.1,88.3,62.8z"/>
	<path class="st0" d="M60.8,6.7c3.4,0,6.6,0,10,0c0,18.6,0,37.4,0,56.1c-5,0-9.8,0-14.9,0C57.4,44.1,59.1,25.5,60.8,6.7z"/>
	<path class="st0" d="M96.6,6.7c2.9,18.7,5.8,37.5,8.7,56.2c-2.7,0-5.2,0-7.9,0c-2.9-18.7-5.8-37.5-8.7-56.2
		C91.3,6.7,93.9,6.7,96.6,6.7z"/>
	<path class="st0" d="M215,67.5c-1.4,0-2.8,0-4.2,0c0-0.2-0.1-0.4-0.1-0.5c0-2.5,0-5.1,0-7.6c0-0.5,0.1-0.7,0.7-0.7
		c0.7,0,1.6,0,2.3,0c0.2,0,0.5-0.3,0.6-0.5c1.6-6.8,3.1-13.6,4.6-20.4c0.1-0.6,0.4-0.8,1-0.8c4.5,0,8.9,0,13.4,0
		c0.6,0,0.8,0.2,0.8,0.8c0,6.6,0,13.1,0,19.8c0,0.3,0,0.6,0,1c1,0,2,0,2.8,0c0.6,0,0.8,0.2,0.8,0.8c0,2.5,0,5,0,7.5
		c0,0.5-0.2,0.7-0.7,0.7c-1.1,0-2.3,0-3.6,0c0-1.6,0-3,0-4.6c-6.1,0-12.2,0-18.3,0C215,64.5,215,65.9,215,67.5z M218.8,58.6
		c3.6,0,7,0,10.6,0c0-5.8,0-11.5,0-17.3c-2.1,0-4.1,0-6.2,0c-0.5,0-0.7,0.1-0.8,0.7c-0.8,3.9-1.7,7.8-2.5,11.7
		C219.6,55.3,219.3,56.8,218.8,58.6z"/>
	<path class="st0" d="M130.7,49.7c0-7.4,5.7-13,13.4-13c4.1,0,7.8,1.1,10.7,4.2c1.8,1.9,2.8,4.2,3.1,6.7c0.6,4.5-0.3,8.4-3.4,11.6
		c-3.4,3.5-7.7,4.7-12.3,3.9c-4.1-0.6-7.5-2.6-9.6-6.3C131.3,54.7,130.7,52.4,130.7,49.7z M135.6,50.1c0.1,0.5,0.1,1.2,0.2,2
		c0.8,3.9,4.2,6.7,8.4,6.9c4.1,0.1,7.6-2.3,8.6-6.3c0.9-3.6,0.3-7-2.5-9.6c-2.9-2.7-6.4-3-9.8-1.3S135.6,46.3,135.6,50.1z"/>
	<path class="st0" d="M138.7,32.7c0-8.7,0-17.3,0-25.9c1.6,0,3,0,4.6,0c0,6,0,12.1,0,18.1c0.1,0,0.1,0,0.2,0.1
		c0.3-0.4,0.5-0.7,0.8-1.1c4-5.5,8.2-11,12.2-16.5c0.3-0.5,0.7-0.7,1.3-0.6c1,0,2.1,0,3.2,0c0,8.6,0,17.2,0,25.9c-1.4,0-3,0-4.6,0
		c0-6,0-12,0-18.2c-0.3,0.4-0.5,0.6-0.7,0.9c-4.1,5.6-8.4,11.2-12.5,16.8c-0.3,0.4-0.7,0.6-1.2,0.6
		C140.9,32.7,139.9,32.7,138.7,32.7z"/>
	<path class="st0" d="M211.8,6.8c1.6,0,3,0,4.6,0c0,6,0,12,0,18c0.1,0,0.1,0,0.2,0.1c0.2-0.2,0.3-0.4,0.5-0.6
		c4.1-5.6,8.4-11.2,12.5-16.9c0.4-0.5,0.7-0.7,1.3-0.7c1,0.1,2.1,0,3.2,0c0,8.6,0,17.2,0,25.9c-1.4,0-3,0-4.6,0c0-6,0-12,0-18.3
		c-0.3,0.4-0.5,0.6-0.7,0.8c-4.1,5.6-8.4,11.2-12.5,16.8c-0.4,0.5-0.7,0.7-1.3,0.7c-1-0.1-2.1,0-3.1,0
		C211.8,24,211.8,15.4,211.8,6.8z"/>
	<path class="st0" d="M196.7,36.6c5.1,0.1,9.3,1.9,11.8,6.5c4.2,7.7,0.8,18.3-9.3,20c-5.4,0.9-10.4-0.4-13.7-5
		c-3.2-4.5-3.5-9.4-1.1-14.3c2.3-4.8,6.4-6.9,11.6-7.2C196.2,36.6,196.5,36.6,196.7,36.6z M196.7,40.9c-4.9,0-8.7,3.7-8.8,8.5
		c-0.2,5.5,3.7,9.6,8.8,9.7c5.1,0,8.7-3.7,8.8-8.8C205.5,44.8,201.9,40.9,196.7,40.9z"/>
	<path class="st0" d="M208.8,32.6c-1.4,0-2.9,0-4.3,0c-0.2,0-0.5-0.3-0.6-0.5c-0.7-1.8-1.6-3.5-2.2-5.4c-0.2-0.5-0.4-0.7-0.9-0.7
		c-3.3,0-6.5,0-9.8,0c-0.5,0-0.8,0.2-1,0.7c-0.7,1.8-1.4,3.5-2.2,5.3c-0.2,0.5-0.5,0.7-1.1,0.7c-1.2,0-2.5,0-3.8,0
		c0.7-1.9,1.4-3.5,2.2-5.3c2.8-6.6,5.7-13.3,8.5-19.9c0.3-0.6,0.6-0.9,1.2-0.8c0.8,0.1,1.8,0,2.6,0c0.2,0,0.6,0.2,0.7,0.4
		c3.6,8.4,7.2,16.9,10.8,25.3C208.9,32.4,208.8,32.5,208.8,32.6z M191.9,21.7c2.6,0,5.1,0,7.7,0c-1.2-3-2.5-6-3.8-9.2
		C194.4,15.7,193.2,18.7,191.9,21.7z"/>
	<path class="st0" d="M166.9,53.5c0,3.2,0,6.2,0,9.3c-1.6,0-3,0-4.6,0c0-8.6,0-17.2,0-25.9c0.7,0,1.6,0,2.3,0c2.8,0.1,5.6,0,8.4,0.3
		c3,0.4,5.4,2,6.4,5c1,3.1,0.6,6.1-1.8,8.5c-1.6,1.7-3.4,2.5-5.6,2.7C170.3,53.6,168.6,53.5,166.9,53.5z M166.8,49.2
		c1.9,0.2,3.6,0.4,5.4-0.1c1.9-0.6,2.9-2.2,2.7-4.1c-0.1-2.1-1.2-3.3-3.2-3.5c-1.4-0.2-2.9-0.1-4.3-0.1c-0.2,0-0.5,0.3-0.5,0.5
		C166.8,44.2,166.8,46.7,166.8,49.2z"/>
	<path class="st0" d="M114.7,6.8c1.7,0,3.1,0,4.7,0c0,0.3,0,0.6,0,0.9c0,2.1,0,4.1,0,6.2c0,0.8,0.1,1.6,0.2,2.4
		c0.4,2.1,1.9,3.2,3.8,3.2c1.7,0.1,3.3-0.3,4.9-1.1c0.6-0.3,0.7-0.7,0.7-1.3c0-3.1,0-6.2,0-9.2c0-0.3,0-0.6,0-0.9c1.6,0,3,0,4.6,0
		c0,0.2,0.1,0.5,0.1,0.7c0,8.1,0,16.2,0,24.2c0,0.6-0.1,0.9-0.8,0.8c-1.2,0-2.5,0-3.7,0c0-3.5,0-6.9,0-10.6
		c-0.4,0.2-0.8,0.3-1.1,0.5c-2.6,1.2-5.3,1.6-8,0.8c-2.8-0.8-4.7-2.8-5-5.7C114.8,14.2,114.8,10.5,114.7,6.8z"/>
	<path class="st0" d="M173.6,11.1c-1.4,0-2.9,0-4.3,0c-1.1,0-2.4,0-3.5,0c-0.3,0-0.7,0-0.7-0.5c0-1.2,0-2.5,0-3.7
		c7.2,0,14.4,0,21.5,0c0,1.3,0,2.8,0,4.2c-2.8,0-5.6,0-8.4,0c0,7.2,0,14.4,0,21.6c-1.4,0-2.8,0-4.1,0c-0.2,0-0.3-0.3-0.4-0.5
		c-0.1-0.2,0-0.4,0-0.6c0-6.5,0-12.9,0-19.5C173.6,11.8,173.6,11.5,173.6,11.1z"/>
	<path class="st0" d="M114.7,37.1c4.9,0,9.8,0,14.8,0c0,1.3,0,2.6,0,3.9c0,0.1-0.5,0.3-0.7,0.3c-2.8,0-5.6,0-8.5,0
		c-0.3,0-0.6,0-0.9,0c0,7.2,0,14.4,0,21.6c-1.4,0-2.9,0-4.2,0c-0.1,0-0.3-0.2-0.4-0.4c-0.1-0.1,0-0.3,0-0.5c0-8.1,0-16.2,0-24.2
		C114.6,37.6,114.7,37.4,114.7,37.1z"/>
	<path class="st0" d="M216.8,4.2c0-1.4,0-2.8,0-4.2c4.5,0,8.8,0,13.4,0c-0.7,1-1.4,1.9-2.1,2.9c-0.6,1.1-1.4,1.4-2.8,1.4
		C222.5,4.1,219.7,4.2,216.8,4.2z"/>
</g>
</svg>
