<?xml version="1.0" encoding="utf-8"?>
<!-- Generator: Adobe Illustrator 26.0.3, SVG Export Plug-In . SVG Version: 6.00 Build 0)  -->
<svg version="1.1" id="Слой_1" xmlns="http://www.w3.org/2000/svg" xmlns:xlink="http://www.w3.org/1999/xlink" x="0px" y="0px"
	 viewBox="0 0 93.2 100" style="enable-background:new 0 0 93.2 100;" xml:space="preserve">
<style type="text/css">
	.st0{fill:#FFFFFF;}
</style>
<path class="st0" d="M46.6,0C33.1,0,22.1,11,22.1,24.5C22.1,38,33.1,49,46.6,49c13.5,0,24.5-11,24.5-24.5C71.1,11,60.2,0,46.6,0
	C46.6,0,46.6,0,46.6,0z M46.6,42c-9.7,0-17.5-7.8-17.5-17.5S37,7,46.6,7s17.5,7.8,17.5,17.5c0,0,0,0,0,0C64.1,34.2,56.3,42,46.6,42z
	"/>
<path class="st0" d="M46.6,53.4c-22.9,0-41.9,16.4-45.9,38.1c-0.8,4.4,2.6,8.5,7,8.5h77.7c4.5,0,7.8-4.1,7-8.5
	C88.5,69.8,69.5,53.4,46.6,53.4L46.6,53.4z M46.6,60.2c19.1,0,34.8,13.1,36.6,29.8c0.2,1.7-1.1,3.2-2.8,3.2H12.8
	c-1.7,0-3-1.5-2.8-3.2C11.8,73.3,27.5,60.2,46.6,60.2z"/>
</svg>
